<svg width="66" height="23" viewBox="0 0 66 23" fill="none" xmlns="http://www.w3.org/2000/svg">
<g clip-path="url(#clip0_293_4089)">
<path d="M43.6038 21.2329L36.6475 14.2766C37.727 12.8811 38.3109 11.1748 38.3109 9.3802C38.3109 7.23198 37.4725 5.2177 35.9565 3.69895C34.4404 2.1802 32.4207 1.34448 30.2752 1.34448C28.1297 1.34448 26.11 2.18288 24.594 3.69895C23.0752 5.21502 22.2395 7.23198 22.2395 9.3802C22.2395 11.5257 23.0779 13.5454 24.594 15.0614C26.11 16.5802 28.127 17.4159 30.2752 17.4159C32.0699 17.4159 33.7734 16.832 35.169 15.7552L42.1252 22.7088C42.1456 22.7292 42.1698 22.7454 42.1965 22.7564C42.2231 22.7675 42.2517 22.7731 42.2806 22.7731C42.3094 22.7731 42.338 22.7675 42.3646 22.7564C42.3913 22.7454 42.4155 22.7292 42.4359 22.7088L43.6038 21.5436C43.6242 21.5232 43.6404 21.499 43.6514 21.4723C43.6625 21.4457 43.6682 21.4171 43.6682 21.3882C43.6682 21.3594 43.6625 21.3308 43.6514 21.3041C43.6404 21.2775 43.6242 21.2533 43.6038 21.2329ZM34.5181 13.6231C33.3824 14.7561 31.877 15.3802 30.2752 15.3802C28.6734 15.3802 27.1681 14.7561 26.0324 13.6231C24.8993 12.4873 24.2752 10.982 24.2752 9.3802C24.2752 7.77841 24.8993 6.27038 26.0324 5.13734C27.1681 4.0043 28.6734 3.3802 30.2752 3.3802C31.877 3.3802 33.385 4.00163 34.5181 5.13734C35.6511 6.27305 36.2752 7.77841 36.2752 9.3802C36.2752 10.982 35.6511 12.49 34.5181 13.6231Z" fill="#FF3B21"/>
</g>
<defs>
<clipPath id="clip0_293_4089">
<rect width="65.5977" height="22.6667" fill="white" transform="translate(0.154541 0.055542)"/>
</clipPath>
</defs>
</svg>
