<svg width="56" height="56" viewBox="0 0 56 56" fill="none" xmlns="http://www.w3.org/2000/svg">
<g clip-path="url(#clip0_293_4162)">
<path d="M38.8366 18.1162C38.8366 17.8412 38.6116 17.6162 38.3366 17.6162L34.2116 17.635L27.9991 25.0412L21.7929 17.6412L17.6616 17.6225C17.3866 17.6225 17.1616 17.8412 17.1616 18.1225C17.1616 18.2412 17.2054 18.3537 17.2804 18.4475L25.4116 28.135L17.2804 37.8162C17.2048 37.9078 17.1629 38.0225 17.1616 38.1412C17.1616 38.4162 17.3866 38.6412 17.6616 38.6412L21.7929 38.6225L27.9991 31.2162L34.2054 38.6162L38.3304 38.635C38.6054 38.635 38.8304 38.4162 38.8304 38.135C38.8304 38.0162 38.7866 37.9037 38.7116 37.81L30.5929 28.1287L38.7241 18.4412C38.7991 18.3537 38.8366 18.235 38.8366 18.1162Z" fill="white" fill-opacity="0.85"/>
<path d="M28 0C12.5375 0 0 12.5375 0 28C0 43.4625 12.5375 56 28 56C43.4625 56 56 43.4625 56 28C56 12.5375 43.4625 0 28 0ZM28 51.25C15.1625 51.25 4.75 40.8375 4.75 28C4.75 15.1625 15.1625 4.75 28 4.75C40.8375 4.75 51.25 15.1625 51.25 28C51.25 40.8375 40.8375 51.25 28 51.25Z" fill="white" fill-opacity="0.85"/>
</g>
<defs>
<clipPath id="clip0_293_4162">
<rect width="56" height="56" fill="white"/>
</clipPath>
</defs>
</svg>
