<svg width="19" height="19" viewBox="0 0 19 19" fill="none" xmlns="http://www.w3.org/2000/svg">
<path d="M9.36606 12.6557C9.38193 12.676 9.4022 12.6924 9.42535 12.7037C9.44849 12.715 9.4739 12.7208 9.49965 12.7208C9.5254 12.7208 9.55081 12.715 9.57395 12.7037C9.5971 12.6924 9.61738 12.676 9.63325 12.6557L12.0082 9.65093C12.0952 9.54066 12.0167 9.37738 11.8747 9.37738H10.3033V2.20149C10.3033 2.10818 10.227 2.03185 10.1337 2.03185H8.86137C8.76807 2.03185 8.69173 2.10818 8.69173 2.20149V9.37526H7.12465C6.98258 9.37526 6.90412 9.53854 6.99106 9.64881L9.36606 12.6557ZM17.2608 11.9135H15.9885C15.8952 11.9135 15.8188 11.9899 15.8188 12.0832V15.3488H3.18045V12.0832C3.18045 11.9899 3.10412 11.9135 3.01081 11.9135H1.73849C1.64519 11.9135 1.56885 11.9899 1.56885 12.0832V16.2818C1.56885 16.6572 1.87208 16.9604 2.24742 16.9604H16.7519C17.1272 16.9604 17.4305 16.6572 17.4305 16.2818V12.0832C17.4305 11.9899 17.3541 11.9135 17.2608 11.9135Z" fill="white"/>
</svg>
