<svg width="66" height="23" viewBox="0 0 66 23" fill="none" xmlns="http://www.w3.org/2000/svg">
<g clip-path="url(#clip0_293_4091)">
<g clip-path="url(#clip1_293_4091)">
<path d="M44.239 10.2309H41.3462V7.18803C41.3462 6.71392 40.9632 6.33089 40.489 6.33089H32.0515L28.9096 3.32553C28.8696 3.2881 28.817 3.26707 28.7623 3.2666H21.9533C21.4792 3.2666 21.0962 3.64964 21.0962 4.12374V19.9809C21.0962 20.455 21.4792 20.838 21.9533 20.838H40.6498C40.998 20.838 41.314 20.6264 41.4453 20.3023L45.0346 11.4095C45.0748 11.3077 45.0962 11.1979 45.0962 11.088C45.0962 10.6139 44.7132 10.2309 44.239 10.2309ZM23.0248 5.19517H28.0739L31.2774 8.25946H39.4176V10.2309H25.7569C25.4087 10.2309 25.0926 10.4425 24.9614 10.7666L23.0248 15.5666V5.19517ZM40.0417 18.9095H23.6408L26.4078 12.0523H42.8114L40.0417 18.9095Z" fill="#FF3B21"/>
</g>
</g>
<defs>
<clipPath id="clip0_293_4091">
<rect width="65.5977" height="22.6667" fill="white" transform="translate(0.297363 0.055542)"/>
</clipPath>
<clipPath id="clip1_293_4091">
<rect width="24" height="24" fill="white" transform="translate(21.0962 0.055542)"/>
</clipPath>
</defs>
</svg>
