<svg width="29" height="29" viewBox="0 0 29 29" fill="none" xmlns="http://www.w3.org/2000/svg">
<path d="M25.9562 1.52393H2.54544C1.98244 1.52393 1.52759 1.97878 1.52759 2.54178V25.9525C1.52759 26.5155 1.98244 26.9703 2.54544 26.9703H25.9562C26.5192 26.9703 26.974 26.5155 26.974 25.9525V2.54178C26.974 1.97878 26.5192 1.52393 25.9562 1.52393ZM24.9383 24.9346H19.0824V17.1162H22.3905L22.8867 13.277H19.0824V10.8246C19.0824 9.71131 19.391 8.95428 20.9846 8.95428H23.0171V5.51901C22.664 5.4713 21.4585 5.36633 20.0526 5.36633C17.1199 5.36633 15.1128 7.15713 15.1128 10.4429V13.2738H11.7984V17.113H15.116V24.9346H3.5633V3.55964H24.9383V24.9346Z" fill="black" fill-opacity="0.85"/>
</svg>
