<svg width="66" height="23" viewBox="0 0 66 23" fill="none" xmlns="http://www.w3.org/2000/svg">
<g clip-path="url(#clip0_293_4087)">
<g clip-path="url(#clip1_293_4087)">
<path d="M44.4503 11.8665L34.1004 1.52185L33.4066 0.828104C33.2485 0.671077 33.0348 0.582947 32.812 0.582947C32.5891 0.582947 32.3754 0.671077 32.2173 0.828104L21.1736 11.8665C21.0116 12.0278 20.8836 12.22 20.7971 12.4316C20.7106 12.6432 20.6674 12.87 20.67 13.0986C20.6807 14.0415 21.4655 14.7942 22.4084 14.7942H23.5468V23.5183H42.0771V14.7942H43.2396C43.6977 14.7942 44.1289 14.6147 44.453 14.2906C44.6126 14.1315 44.7391 13.9424 44.825 13.7341C44.911 13.5258 44.9548 13.3025 44.9539 13.0772C44.9539 12.6219 44.7745 12.1906 44.4503 11.8665ZM34.312 21.5897H31.312V16.1254H34.312V21.5897ZM40.1486 12.8656V21.5897H36.0262V15.4826C36.0262 14.8906 35.5468 14.4111 34.9548 14.4111H30.6691C30.0771 14.4111 29.5977 14.8906 29.5977 15.4826V21.5897H25.4754V12.8656H22.9039L32.8146 2.96293L33.4334 3.58168L42.7227 12.8656H40.1486Z" fill="#FF3B21"/>
</g>
</g>
<defs>
<clipPath id="clip0_293_4087">
<rect width="65.5977" height="22.6667" fill="white" transform="translate(0.0117188 0.055542)"/>
</clipPath>
<clipPath id="clip1_293_4087">
<rect width="24" height="24" fill="white" transform="translate(20.8105 0.055542)"/>
</clipPath>
</defs>
</svg>
