<svg width="29" height="29" viewBox="0 0 29 29" fill="none" xmlns="http://www.w3.org/2000/svg">
<path d="M14.7493 7.72155C11.1391 7.72155 8.22545 10.6352 8.22545 14.2454C8.22545 17.8556 11.1391 20.7692 14.7493 20.7692C18.3595 20.7692 21.2731 17.8556 21.2731 14.2454C21.2731 10.6352 18.3595 7.72155 14.7493 7.72155ZM14.7493 18.4854C12.4146 18.4854 10.5093 16.5801 10.5093 14.2454C10.5093 11.9107 12.4146 10.0054 14.7493 10.0054C17.084 10.0054 18.9893 11.9107 18.9893 14.2454C18.9893 16.5801 17.084 18.4854 14.7493 18.4854ZM21.5403 5.93394C20.6974 5.93394 20.0167 6.61463 20.0167 7.45754C20.0167 8.30045 20.6974 8.98115 21.5403 8.98115C22.3832 8.98115 23.0639 8.30364 23.0639 7.45754C23.0641 7.25739 23.0249 7.05915 22.9484 6.87419C22.8719 6.68922 22.7597 6.52116 22.6182 6.37963C22.4767 6.2381 22.3086 6.12588 22.1236 6.0494C21.9387 5.97292 21.7404 5.93369 21.5403 5.93394ZM27.4661 14.2454C27.4661 12.4896 27.482 10.7497 27.3834 8.99705C27.2848 6.96134 26.8204 5.15464 25.3318 3.66603C23.84 2.17423 22.0365 1.71301 20.0008 1.61441C18.245 1.5158 16.5051 1.53171 14.7525 1.53171C12.9967 1.53171 11.2568 1.5158 9.50413 1.61441C7.46842 1.71301 5.66172 2.17741 4.17311 3.66603C2.68131 5.15782 2.22009 6.96134 2.12149 8.99705C2.02288 10.7529 2.03879 12.4928 2.03879 14.2454C2.03879 15.998 2.02288 17.7411 2.12149 19.4937C2.22009 21.5294 2.68449 23.3361 4.17311 24.8247C5.6649 26.3165 7.46842 26.7777 9.50413 26.8763C11.2599 26.9749 12.9998 26.959 14.7525 26.959C16.5083 26.959 18.2482 26.9749 20.0008 26.8763C22.0365 26.7777 23.8432 26.3133 25.3318 24.8247C26.8236 23.3329 27.2848 21.5294 27.3834 19.4937C27.4852 17.7411 27.4661 16.0012 27.4661 14.2454ZM24.667 21.7457C24.4348 22.3246 24.1549 22.7572 23.7064 23.2025C23.2579 23.651 22.8285 23.9309 22.2496 24.1631C20.5765 24.8279 16.6037 24.6784 14.7493 24.6784C12.8949 24.6784 8.91886 24.8279 7.24576 24.1663C6.66686 23.9341 6.23427 23.6542 5.78895 23.2057C5.34046 22.7572 5.06055 22.3278 4.82835 21.7489C4.16674 20.0726 4.31624 16.0998 4.31624 14.2454C4.31624 12.391 4.16674 8.41496 4.82835 6.74186C5.06055 6.16296 5.34046 5.73037 5.78895 5.28505C6.23745 4.83974 6.66686 4.55665 7.24576 4.32445C8.91886 3.66285 12.8949 3.81234 14.7493 3.81234C16.6037 3.81234 20.5797 3.66285 22.2528 4.32445C22.8317 4.55665 23.2643 4.83656 23.7096 5.28505C24.1581 5.73355 24.438 6.16296 24.6702 6.74186C25.3318 8.41496 25.1823 12.391 25.1823 14.2454C25.1823 16.0998 25.3318 20.0726 24.667 21.7457Z" fill="black" fill-opacity="0.85"/>
</svg>
