<svg width="29" height="29" viewBox="0 0 29 29" fill="none" xmlns="http://www.w3.org/2000/svg">
<path d="M25.4285 1.52393H4.0726C2.94341 1.52393 2.02734 2.44 2.02734 3.56918V24.9251C2.02734 26.0543 2.94341 26.9703 4.0726 26.9703H25.4285C26.5577 26.9703 27.4738 26.0543 27.4738 24.9251V3.56918C27.4738 2.44 26.5577 1.52393 25.4285 1.52393ZM25.4285 24.9346C11.1849 24.9314 4.06306 24.9283 4.06306 24.9251C4.06624 10.6815 4.06942 3.55964 4.0726 3.55964C18.3162 3.56282 25.438 3.566 25.438 3.56918C25.4349 17.8128 25.4317 24.9346 25.4285 24.9346ZM5.79978 11.0632H9.57539V23.2075H5.79978V11.0632ZM7.68917 9.40277C8.8947 9.40277 9.87756 8.42309 9.87756 7.21438C9.87756 6.927 9.82096 6.64243 9.71098 6.37692C9.60101 6.11141 9.43981 5.87017 9.2366 5.66695C9.03339 5.46374 8.79214 5.30255 8.52663 5.19257C8.26113 5.08259 7.97656 5.02599 7.68917 5.02599C7.40179 5.02599 7.11722 5.08259 6.85171 5.19257C6.5862 5.30255 6.34496 5.46374 6.14175 5.66695C5.93853 5.87017 5.77734 6.11141 5.66736 6.37692C5.55738 6.64243 5.50078 6.927 5.50078 7.21438C5.4976 8.42309 6.47729 9.40277 7.68917 9.40277ZM15.7143 17.1989C15.7143 15.6149 16.0165 14.0817 17.9791 14.0817C19.913 14.0817 19.9416 15.8916 19.9416 17.3007V23.2075H23.7141V16.5469C23.7141 13.277 23.0079 10.761 19.1878 10.761C17.3524 10.761 16.1215 11.7693 15.6157 12.7235H15.5648V11.0632H11.9419V23.2075H15.7143V17.1989Z" fill="black" fill-opacity="0.85"/>
</svg>
