<svg width="70" height="69" viewBox="0 0 70 69" fill="none" xmlns="http://www.w3.org/2000/svg">
<mask id="mask0_616_258" style="mask-type:alpha" maskUnits="userSpaceOnUse" x="0" y="0" width="70" height="69">
<path d="M31.032 21.8213H30.0179L28.8692 18.0421L27.7242 21.8213H26.7102L25.0488 15.5837H26.3173L27.2789 19.5126L28.4164 15.5837H29.3257L30.4632 19.5126L31.4323 15.5837H32.7008L31.032 21.8213Z" fill="black"/>
<path d="M35.9077 21.8211V19.0335C35.9077 18.7528 35.8328 18.547 35.6907 18.4198C35.5447 18.2926 35.3689 18.2252 35.1668 18.2252C34.9647 18.2252 34.7889 18.2888 34.6467 18.4198C34.5045 18.547 34.4334 18.7528 34.4334 19.0335V21.8211H33.2959V15.5835H34.4334V17.6752C34.744 17.3609 35.1069 17.2037 35.526 17.2037C36.0162 17.2037 36.3904 17.3571 36.656 17.6602C36.918 17.9633 37.0489 18.3674 37.0489 18.8688V21.8211H35.9077Z" fill="black"/>
<path d="M40.4082 21.8219V21.429C40.2511 21.5825 40.0902 21.6947 39.9255 21.7583C39.7609 21.8219 39.5476 21.8556 39.2857 21.8556C38.7768 21.8556 38.3951 21.7246 38.1369 21.459C37.8788 21.1933 37.7478 20.8528 37.7478 20.43C37.7478 20.0408 37.8788 19.7228 38.1407 19.4758C38.4026 19.2326 38.7918 19.1091 39.3044 19.1091H40.382V18.8809C40.382 18.6302 40.3147 18.4468 40.1837 18.3346C40.0528 18.2223 39.8357 18.1624 39.5326 18.1624C39.3119 18.1624 39.1435 18.1886 39.0238 18.241C38.9078 18.2934 38.7843 18.3944 38.6571 18.5366L37.9312 17.8294C38.1519 17.59 38.3839 17.4253 38.6234 17.3355C38.8629 17.2457 39.1809 17.2008 39.5775 17.2008C40.8722 17.2008 41.5195 17.7396 41.5195 18.8135V21.8182H40.4082V21.8219ZM40.382 19.8874H39.4803C39.0537 19.8874 38.8404 20.0595 38.8404 20.4038C38.8404 20.7518 39.0574 20.9276 39.4952 20.9276C39.6748 20.9276 39.817 20.9164 39.9143 20.8902C40.0116 20.864 40.1164 20.8004 40.2211 20.7031C40.3259 20.6058 40.3783 20.415 40.3783 20.1344V19.8874H40.382Z" fill="black"/>
<path d="M43.9732 21.822C43.5354 21.822 43.2062 21.6948 42.9854 21.4403C42.7646 21.1859 42.6524 20.879 42.6524 20.5161V18.2523H42.1697V17.3879H42.6524V16.0409H43.7899V17.3879H44.5944V18.2523H43.7899V20.445C43.7899 20.7181 43.9208 20.8566 44.1828 20.8566H44.5944V21.8182H43.9732V21.822Z" fill="black"/>
<path d="M28.4389 29.9544H27.4248L26.2799 26.1752L25.1349 29.9544H24.1208L22.4595 23.7168H23.7279L24.6896 27.6457L25.8271 23.7168H26.7364L27.8739 27.6457L28.843 23.7168H30.1115L28.4389 29.9544Z" fill="black"/>
<path d="M33.9348 29.4389C33.7776 29.6073 33.583 29.742 33.3473 29.8468C33.1153 29.9478 32.8384 30.0002 32.5166 30.0002C32.2023 30.0002 31.9292 29.9478 31.6934 29.8468C31.4614 29.7458 31.2556 29.5998 31.076 29.4127C30.8964 29.2257 30.7729 28.9974 30.6981 28.728C30.627 28.4548 30.5896 28.1031 30.5896 27.6653C30.5896 27.2163 30.6233 26.8646 30.6944 26.6064C30.7655 26.3482 30.8889 26.1237 31.0723 25.9329C31.2519 25.742 31.4577 25.5924 31.6897 25.4913C31.9217 25.3903 32.1948 25.3379 32.5166 25.3379C32.8309 25.3379 33.1078 25.3903 33.3436 25.4913C33.5793 25.5924 33.7851 25.7383 33.9647 25.9254C34.1443 26.1125 34.2678 26.3407 34.3426 26.6139C34.4137 26.8833 34.4511 27.235 34.4511 27.6691C34.4511 28.1256 34.4175 28.481 34.3464 28.7355C34.2753 28.9899 34.1368 29.2219 33.9348 29.4389ZM33.0517 26.5615C32.917 26.4268 32.7411 26.3594 32.5166 26.3594C32.2996 26.3594 32.1312 26.4193 32.0152 26.539C31.8955 26.6588 31.8169 26.8084 31.7832 26.9843C31.7496 27.1639 31.7308 27.3884 31.7308 27.6616C31.7308 28.0283 31.7496 28.2827 31.7907 28.4212C31.8319 28.5596 31.9105 28.6868 32.0227 28.8028C32.135 28.9151 32.2996 28.975 32.5166 28.975C32.7374 28.975 32.9095 28.9151 33.0293 28.7953C33.149 28.6756 33.2276 28.5259 33.2612 28.3501C33.2949 28.1705 33.3136 27.9422 33.3136 27.6653C33.3136 27.366 33.2987 27.1377 33.2687 26.9768C33.2388 26.8159 33.1677 26.6775 33.0517 26.5615Z" fill="black"/>
<path d="M37.6677 26.6267C37.5741 26.5332 37.4843 26.4658 37.3983 26.4209C37.3122 26.376 37.1999 26.3536 37.0652 26.3536C36.8669 26.3536 36.6948 26.4247 36.5489 26.5669C36.4029 26.709 36.3318 26.9186 36.3318 27.1955V29.9494H35.1943V25.3844H36.3057V25.8222C36.4179 25.6875 36.5751 25.5715 36.7883 25.478C36.9979 25.3807 37.2187 25.3321 37.4544 25.3321C37.6826 25.3321 37.8772 25.3657 38.0456 25.4293C38.2102 25.493 38.3749 25.6052 38.532 25.7624L37.6677 26.6267Z" fill="black"/>
<path d="M41.7339 29.9545L40.6151 28.0462L40.1324 28.5925V29.9545H38.9949V23.7169H40.1324V27.2342L41.6441 25.3858L43.0173 25.3895L41.3934 27.2268L43.1445 29.9545H41.7339Z" fill="black"/>
<path d="M45.263 29.9943C44.8253 29.9943 44.4586 29.9532 44.1667 29.8671C43.8711 29.7811 43.5905 29.6052 43.321 29.3395L44.0657 28.5949C44.2303 28.7596 44.4174 28.8718 44.6344 28.9317C44.8514 28.9915 45.0647 29.0215 45.2817 29.0215C45.5025 29.0215 45.6933 28.9841 45.8505 28.9092C46.0077 28.8344 46.0862 28.7146 46.0862 28.55C46.0862 28.434 46.0488 28.3405 45.9777 28.2656C45.9066 28.1945 45.7794 28.1459 45.6073 28.1309L44.8889 28.0598C44.4586 28.0187 44.1293 27.8989 43.901 27.6969C43.6728 27.4948 43.5605 27.1917 43.5605 26.7839C43.5605 26.3274 43.7326 25.9719 44.0731 25.7175C44.4137 25.4593 44.829 25.3321 45.3192 25.3321C45.7158 25.3321 46.0526 25.3695 46.3257 25.4443C46.5989 25.5192 46.8458 25.6613 47.0591 25.8634L46.3594 26.5706C46.2434 26.4658 46.09 26.3873 45.8954 26.3386C45.7046 26.29 45.5063 26.2638 45.3005 26.2638C45.0909 26.2638 44.93 26.3049 44.8178 26.391C44.7055 26.4771 44.6531 26.5781 44.6531 26.7016C44.6531 26.8063 44.6868 26.8924 44.7504 26.9635C44.814 27.0346 44.9412 27.0757 45.1283 27.0945L45.8468 27.1655C46.2883 27.2067 46.6251 27.3414 46.857 27.5734C47.089 27.8054 47.2013 28.116 47.2013 28.5051C47.2013 28.9878 47.0217 29.3582 46.6625 29.6127C46.2995 29.8709 45.8355 29.9943 45.263 29.9943Z" fill="black"/>
<path d="M26.8784 38.565C26.5454 38.565 26.2386 38.5052 25.9542 38.3892C25.6698 38.2732 25.4042 38.0861 25.1497 37.8354C24.8953 37.5809 24.7381 37.2853 24.6783 36.9448C24.6184 36.6043 24.5847 36.088 24.5847 35.3995C24.5847 34.7185 24.6184 34.2021 24.682 33.8541C24.7456 33.5061 24.9065 33.2068 25.1572 32.9523C25.4117 32.6979 25.6736 32.5145 25.9505 32.4023C26.2236 32.29 26.5342 32.2302 26.8784 32.2302C27.4771 32.2302 27.986 32.3985 28.3976 32.739C28.8092 33.0758 29.0674 33.566 29.1722 34.1984H27.9374C27.8738 33.9289 27.754 33.7157 27.5819 33.5548C27.4098 33.3939 27.1778 33.3153 26.8859 33.3153C26.5529 33.3153 26.3097 33.4013 26.16 33.5735C26.0066 33.7456 25.9093 33.9514 25.8682 34.1909C25.8233 34.4303 25.8008 34.8307 25.8008 35.3995C25.8008 35.9869 25.8195 36.3948 25.8607 36.6156C25.9018 36.8363 25.9991 37.0384 26.1525 37.2142C26.3059 37.3938 26.5492 37.4799 26.8822 37.4799C27.174 37.4799 27.406 37.4013 27.5782 37.2404C27.7503 37.0795 27.87 36.8663 27.9336 36.5968H29.1684C29.0637 37.2255 28.8055 37.7119 28.3901 38.0524C27.9785 38.3967 27.4734 38.565 26.8784 38.565Z" fill="black"/>
<path d="M29.9153 33.176V32.248H31.0528V33.176H29.9153ZM29.9153 38.523V33.9581H31.0528V38.523H29.9153Z" fill="black"/>
<path d="M33.4588 38.5237C33.021 38.5237 32.6918 38.3965 32.471 38.1421C32.2502 37.8876 32.138 37.5808 32.138 37.2178V34.954H31.6553V34.0897H32.138V32.7426H33.2755V34.0897H34.08V34.954H33.2755V37.1467C33.2755 37.4199 33.4064 37.5583 33.6684 37.5583H34.08V38.52H33.4588V38.5237Z" fill="black"/>
<path d="M34.8516 33.176V32.248H35.9891V33.176H34.8516ZM34.8516 38.523V33.9581H35.9891V38.523H34.8516Z" fill="black"/>
<path d="M37.9802 36.5881C37.9802 36.8912 38.0663 37.1381 38.2421 37.3215C38.418 37.5086 38.6612 37.6021 38.9755 37.6021C39.2075 37.6021 39.3983 37.5684 39.548 37.5048C39.6977 37.4412 39.8511 37.3289 40.0083 37.1718L40.7005 37.8453C40.4498 38.096 40.1991 38.2794 39.9447 38.3916C39.6902 38.5039 39.3647 38.5637 38.968 38.5637C38.3432 38.5637 37.838 38.3879 37.4451 38.0399C37.056 37.6882 36.8577 37.0857 36.8577 36.2289C36.8577 35.4992 37.0373 34.9305 37.4002 34.5189C37.7632 34.1073 38.2421 33.9015 38.8446 33.9015C39.462 33.9015 39.9484 34.1035 40.3001 34.5076C40.6519 34.9117 40.8277 35.4356 40.8277 36.0792V36.5881H37.9802ZM39.6079 35.3196C39.5443 35.1737 39.447 35.0577 39.3198 34.9754C39.1926 34.8893 39.0354 34.8481 38.8483 34.8481C38.6612 34.8481 38.5041 34.8893 38.3768 34.9754C38.2496 35.0614 38.1523 35.1812 38.085 35.3383C38.0176 35.4955 37.9839 35.6526 37.9839 35.8098H39.7164C39.7127 35.6526 39.6752 35.488 39.6079 35.3196Z" fill="black"/>
<path d="M43.1336 38.5637C42.6959 38.5637 42.3292 38.5226 42.0373 38.4365C41.7417 38.3505 41.4611 38.1746 41.1917 37.9089L41.9363 37.1643C42.1009 37.3289 42.288 37.4412 42.505 37.5011C42.722 37.5609 42.9353 37.5909 43.1524 37.5909C43.3731 37.5909 43.564 37.5535 43.7211 37.4786C43.8783 37.4038 43.9568 37.284 43.9568 37.1194C43.9568 37.0034 43.9194 36.9099 43.8483 36.835C43.7772 36.7639 43.65 36.7153 43.4779 36.7003L42.7595 36.6292C42.3292 36.5881 41.9999 36.4683 41.7716 36.2663C41.5434 36.0642 41.4311 35.7611 41.4311 35.3533C41.4311 34.8968 41.6032 34.5413 41.9438 34.2869C42.2843 34.0287 42.6996 33.9015 43.1898 33.9015C43.5864 33.9015 43.9232 33.9389 44.1963 34.0137C44.4695 34.0885 44.7164 34.2307 44.9297 34.4328L44.23 35.14C44.114 35.0352 43.9606 34.9566 43.766 34.908C43.5752 34.8594 43.3769 34.8332 43.1711 34.8332C42.9615 34.8332 42.8006 34.8743 42.6884 34.9604C42.5761 35.0465 42.5237 35.1475 42.5237 35.271C42.5237 35.3757 42.5574 35.4618 42.621 35.5329C42.6846 35.604 42.8119 35.6451 42.9989 35.6638L43.7174 35.7349C44.1589 35.7761 44.4957 35.9108 44.7277 36.1428C44.9596 36.3748 45.0719 36.6854 45.0719 37.0745C45.0719 37.5572 44.8923 37.9276 44.5331 38.1821C44.1701 38.4365 43.7061 38.5637 43.1336 38.5637Z" fill="black"/>
<path d="M14.3782 47.5763C14.0452 47.5763 13.7383 47.5164 13.454 47.4004C13.1696 47.2844 12.9039 47.0973 12.6495 46.8466C12.395 46.5922 12.2379 46.2966 12.178 45.9561C12.1181 45.6156 12.0845 45.0992 12.0845 44.4107C12.0845 43.7297 12.1181 43.2133 12.1818 42.8653C12.2454 42.5173 12.4063 42.218 12.657 41.9636C12.9114 41.7091 13.1733 41.5258 13.4502 41.4135C13.7234 41.3013 14.034 41.2414 14.3782 41.2414C14.9769 41.2414 15.4858 41.4098 15.8974 41.7503C16.309 42.087 16.5672 42.5772 16.6719 43.2096H15.4371C15.3735 42.9402 15.2538 42.7269 15.0817 42.566C14.9095 42.4051 14.6775 42.3265 14.3857 42.3265C14.0527 42.3265 13.8094 42.4126 13.6598 42.5847C13.5064 42.7568 13.4091 42.9626 13.3679 43.2021C13.323 43.4416 13.3006 43.8419 13.3006 44.4107C13.3006 44.9982 13.3193 45.406 13.3604 45.6268C13.4016 45.8476 13.4989 46.0496 13.6523 46.2255C13.8057 46.4051 14.0489 46.4911 14.3819 46.4911C14.6738 46.4911 14.9058 46.4126 15.0779 46.2517C15.25 46.0908 15.3698 45.8775 15.4334 45.6081H16.6682C16.5634 46.2367 16.3052 46.7231 15.8899 47.0636C15.4783 47.4041 14.9731 47.5763 14.3782 47.5763Z" fill="black"/>
<path d="M18.5176 45.5979C18.5176 45.901 18.6036 46.148 18.7795 46.3313C18.9553 46.5184 19.1986 46.612 19.5129 46.612C19.7449 46.612 19.9357 46.5783 20.0854 46.5147C20.235 46.4511 20.3885 46.3388 20.5456 46.1816L21.2378 46.8552C20.9871 47.1059 20.7364 47.2892 20.482 47.4015C20.2276 47.5137 19.902 47.5736 19.5054 47.5736C18.8805 47.5736 18.3754 47.3977 17.9825 47.0498C17.5933 46.698 17.395 46.0956 17.395 45.2387C17.395 44.5091 17.5746 43.9403 17.9376 43.5287C18.3005 43.1171 18.7795 42.9113 19.3819 42.9113C19.9993 42.9113 20.4857 43.1134 20.8375 43.5175C21.1892 43.9216 21.3651 44.4455 21.3651 45.089V45.5979H18.5176ZM20.1452 44.3295C20.0816 44.1835 19.9843 44.0675 19.8571 43.9852C19.7299 43.8992 19.5727 43.858 19.3857 43.858C19.1986 43.858 19.0414 43.8992 18.9142 43.9852C18.787 44.0713 18.6897 44.191 18.6223 44.3482C18.555 44.5053 18.5213 44.6625 18.5213 44.8196H20.2538C20.25 44.6625 20.2126 44.5016 20.1452 44.3295Z" fill="black"/>
<path d="M24.5268 44.2108C24.4333 44.1172 24.3434 44.0499 24.2574 44.005C24.1713 43.9601 24.0591 43.9376 23.9244 43.9376C23.7261 43.9376 23.5539 44.0087 23.408 44.1509C23.2621 44.2931 23.191 44.5026 23.191 44.7795V47.5335H22.0535V42.9685H23.1648V43.4063C23.277 43.2716 23.4342 43.1556 23.6475 43.062C23.8608 42.9685 24.0778 42.9161 24.3135 42.9161C24.5418 42.9161 24.7363 42.9498 24.9047 43.0134C25.0694 43.077 25.234 43.1893 25.3912 43.3464L24.5268 44.2108Z" fill="black"/>
<path d="M27.4891 47.5325C27.0513 47.5325 26.722 47.4053 26.5013 47.1508C26.2805 46.8964 26.1682 46.5895 26.1682 46.2266V43.9628H25.6855V43.0985H26.1682V41.7514H27.3057V43.0985H28.1102V43.9628H27.3057V46.1555C27.3057 46.4287 27.4367 46.5671 27.6986 46.5671H28.1102V47.5287H27.4891V47.5325Z" fill="black"/>
<path d="M28.8328 42.1896V41.2616H29.9703V42.1896H28.8328ZM28.8328 47.5329V42.9679H29.9703V47.5329H28.8328Z" fill="black"/>
<path d="M32.1937 43.9634V47.5331H31.0562V43.9634H30.5847V43.099H31.0562V42.5303C31.0562 42.1748 31.1684 41.868 31.3929 41.6135C31.6175 41.3553 31.9467 41.2281 32.3845 41.2281H33.0319V42.1898H32.5866C32.3247 42.1898 32.1937 42.3282 32.1937 42.6014V43.099H33.0319V43.9634H32.1937Z" fill="black"/>
<path d="M33.6482 42.1896V41.2616H34.7857V42.1896H33.6482ZM33.6482 47.5329V42.9679H34.7857V47.5329H33.6482Z" fill="black"/>
<path d="M37.7047 47.5784C37.1547 47.5784 36.6795 47.3988 36.2754 47.0396C35.8712 46.6804 35.6692 46.0817 35.6692 45.2435C35.6692 44.4053 35.8712 43.8067 36.2716 43.4512C36.6757 43.0957 37.1509 42.9161 37.7047 42.9161C38.3184 42.9161 38.8198 43.1219 39.2089 43.5298L38.4381 44.3006C38.3221 44.1734 38.2061 44.0798 38.0939 44.0237C37.9816 43.9676 37.8507 43.9414 37.7047 43.9414C37.4353 43.9414 37.2183 44.0424 37.0537 44.2482C36.889 44.454 36.803 44.7833 36.803 45.2472C36.803 45.715 36.8853 46.048 37.0537 46.2538C37.2183 46.4596 37.4353 46.5606 37.7047 46.5606C37.9741 46.5606 38.2174 46.4409 38.4381 46.2014L39.2089 46.961C38.8123 47.3688 38.3109 47.5784 37.7047 47.5784Z" fill="black"/>
<path d="M42.2329 47.5324V47.1395C42.0758 47.293 41.9149 47.4052 41.7502 47.4688C41.5856 47.5324 41.3723 47.5661 41.1104 47.5661C40.6015 47.5661 40.2198 47.4352 39.9617 47.1695C39.7035 46.9038 39.5725 46.5633 39.5725 46.1405C39.5725 45.7513 39.7035 45.4333 39.9654 45.1863C40.2273 44.9431 40.6165 44.8196 41.1291 44.8196H42.2067V44.5914C42.2067 44.3407 42.1394 44.1573 42.0084 44.0451C41.8775 43.9328 41.6604 43.873 41.3574 43.873C41.1366 43.873 40.9682 43.8992 40.8485 43.9515C40.7325 44.0039 40.609 44.105 40.4818 44.2471L39.7559 43.5399C39.9766 43.3005 40.2086 43.1358 40.4481 43.046C40.6876 42.9562 41.0056 42.9113 41.4023 42.9113C42.6969 42.9113 43.3442 43.4501 43.3442 44.524V47.5287H42.2329V47.5324ZM42.2067 45.5979H41.305C40.8784 45.5979 40.6651 45.7701 40.6651 46.1143C40.6651 46.4623 40.8821 46.6381 41.3199 46.6381C41.4995 46.6381 41.6417 46.6269 41.739 46.6007C41.8363 46.5745 41.9411 46.5109 42.0458 46.4136C42.1506 46.3164 42.203 46.1255 42.203 45.8449V45.5979H42.2067Z" fill="black"/>
<path d="M45.7601 47.5325C45.3223 47.5325 44.993 47.4053 44.7723 47.1508C44.5515 46.8964 44.4392 46.5895 44.4392 46.2266V43.9628H43.9565V43.0985H44.4392V41.7514H45.5767V43.0985H46.3812V43.9628H45.5767V46.1555C45.5767 46.4287 45.7077 46.5671 45.9696 46.5671H46.3812V47.5287H45.7601V47.5325Z" fill="black"/>
<path d="M47.2129 42.1896V41.2616H48.3504V42.1896H47.2129ZM47.2129 47.5329V42.9679H48.3504V47.5329H47.2129Z" fill="black"/>
<path d="M52.395 47.0171C52.2378 47.1855 52.0432 47.3202 51.8075 47.425C51.5755 47.526 51.2986 47.5784 50.9768 47.5784C50.6625 47.5784 50.3894 47.526 50.1536 47.425C49.9216 47.3239 49.7158 47.178 49.5362 46.9909C49.3566 46.8038 49.2332 46.5756 49.1583 46.3062C49.0872 46.033 49.0498 45.6813 49.0498 45.2435C49.0498 44.7945 49.0835 44.4428 49.1546 44.1846C49.2257 43.9264 49.3492 43.7019 49.5325 43.5111C49.7121 43.3202 49.9179 43.1705 50.1499 43.0695C50.3819 42.9685 50.655 42.9161 50.9768 42.9161C51.2911 42.9161 51.568 42.9685 51.8038 43.0695C52.0395 43.1705 52.2453 43.3165 52.4249 43.5036C52.6045 43.6907 52.728 43.9189 52.8028 44.1921C52.8739 44.4615 52.9113 44.8132 52.9113 45.2472C52.9113 45.7037 52.8777 46.0592 52.8066 46.3137C52.7355 46.5681 52.6008 46.8001 52.395 47.0171ZM51.5119 44.1397C51.3772 44.005 51.2013 43.9376 50.9768 43.9376C50.7598 43.9376 50.5914 43.9975 50.4754 44.1172C50.3557 44.237 50.2771 44.3866 50.2434 44.5625C50.2098 44.7384 50.1911 44.9666 50.1911 45.2398C50.1911 45.6065 50.2098 45.8609 50.2509 45.9994C50.2921 46.1378 50.3707 46.265 50.4829 46.381C50.5952 46.4933 50.7598 46.5531 50.9768 46.5531C51.1976 46.5531 51.3697 46.4933 51.4895 46.3735C51.6092 46.2538 51.6878 46.1041 51.7215 45.9283C51.7551 45.7487 51.7738 45.5204 51.7738 45.2435C51.7738 44.9442 51.7589 44.7159 51.7289 44.555C51.7027 44.3941 51.6279 44.2557 51.5119 44.1397Z" fill="black"/>
<path d="M56.4251 47.5335V44.772C56.4251 44.4839 56.3502 44.2744 56.208 44.1397C56.0621 44.005 55.8863 43.9376 55.673 43.9376C55.456 43.9376 55.2763 44.005 55.1304 44.1359C54.9845 44.2669 54.9134 44.4802 54.9134 44.772V47.5335H53.7759V42.9685H54.8872V43.3876C55.1828 43.0733 55.5645 42.9161 56.0247 42.9161C56.2455 42.9161 56.4475 42.9498 56.6309 43.0209C56.8142 43.092 56.9826 43.2005 57.1285 43.3502C57.2782 43.4998 57.3867 43.6794 57.4578 43.8927C57.5289 44.106 57.5626 44.3455 57.5626 44.6149V47.5335H56.4251Z" fill="black"/>
<path d="M2.58236 48.0709C2.36159 47.5284 2.15205 46.9746 1.95748 46.4245L7.21097 44.5836C7.37187 45.0438 7.54773 45.5078 7.73482 45.9643L2.58236 48.0709ZM69.2238 40.9241L63.7384 39.9662C63.8244 39.4835 63.8955 38.9896 63.9554 38.5031L69.482 39.1841C69.4147 39.7641 69.3249 40.3516 69.2238 40.9241ZM0.490694 40.737C0.393407 40.1645 0.311088 39.5808 0.239993 38.9971L5.76663 38.3422C5.82276 38.8324 5.89386 39.3263 5.97618 39.8053L0.490694 40.737ZM69.5718 38.4021L64.034 37.8446C64.0826 37.3544 64.12 36.8567 64.1462 36.3703L69.7065 36.6472C69.6766 37.2272 69.6317 37.8184 69.5718 38.4021ZM0.157674 38.2113C0.101547 37.6313 0.0603868 37.0401 0.0341942 36.4564L5.59451 36.2057C5.61696 36.6958 5.65064 37.1935 5.69928 37.6799L0.157674 38.2113ZM0.00800166 35.6706V35.6407C-0.00322375 35.0644 -0.00322384 34.4844 0.0117434 33.9157L5.5758 34.0654C5.56458 34.5443 5.56084 35.0345 5.57206 35.5172L0.00800166 35.6706ZM63.9741 31.375C63.918 30.8923 63.8469 30.3984 63.7608 29.912L69.25 28.9765C69.3473 29.5527 69.4334 30.1402 69.5007 30.7164L63.9741 31.375ZM6.12211 29.1561L0.659075 28.0747C0.771329 27.506 0.902292 26.926 1.04448 26.3572L6.4439 27.7118C6.32416 28.1907 6.21565 28.6772 6.12211 29.1561ZM60.816 21.2198C60.5878 20.7857 60.3446 20.3517 60.0939 19.9326L64.8834 17.0925C65.179 17.594 65.4708 18.1103 65.7402 18.6229L60.816 21.2198ZM8.98833 21.115L4.07534 18.4995C4.35223 17.9831 4.64409 17.4667 4.94344 16.9653L9.71798 19.8315C9.46728 20.2469 9.22032 20.6772 8.98833 21.115ZM58.5522 17.5977C58.2641 17.2048 57.961 16.8119 57.6505 16.4265L61.976 12.9204C62.3464 13.3769 62.7056 13.8447 63.0461 14.3124L58.5522 17.5977ZM11.2746 17.4929L6.79563 14.1852C7.14362 13.7137 7.50657 13.246 7.87701 12.797L12.1838 16.3255C11.8695 16.7034 11.5664 17.0963 11.2746 17.4929ZM12.6066 15.8166L8.37841 12.1945C8.76008 11.7493 9.15671 11.3115 9.55334 10.8886L13.5945 14.7165C13.2615 15.072 12.9284 15.4424 12.6066 15.8166ZM54.2267 12.8643C53.86 12.5388 53.4783 12.2207 53.0929 11.9176L56.5541 7.55844C57.0106 7.92139 57.4671 8.30306 57.9049 8.68846L54.2267 12.8643ZM15.6188 12.7745L11.9593 8.57995C12.3934 8.20203 12.8461 7.82411 13.3101 7.45741L16.7563 11.8278C16.3672 12.1384 15.9855 12.4565 15.6188 12.7745ZM50.8179 10.2787C50.4026 10.0093 49.9798 9.74739 49.5569 9.50418L52.3521 4.68848C52.8535 4.98034 53.3586 5.29091 53.8525 5.60896L50.8179 10.2787ZM19.0388 10.2076L16.0267 5.52664C16.5168 5.20859 17.0257 4.90176 17.5271 4.61364L20.2961 9.44057C19.8732 9.68378 19.4504 9.94197 19.0388 10.2076ZM20.876 9.11503L18.2119 4.22824C18.7282 3.9476 19.2521 3.67819 19.7797 3.42749L22.1894 8.44525C21.7479 8.65479 21.3063 8.88304 20.876 9.11503ZM47.0649 8.21325C46.6196 8.00746 46.1594 7.81288 45.7029 7.62953L47.7646 2.45836C48.3072 2.67539 48.8535 2.90738 49.3848 3.1506L47.0649 8.21325ZM43.0462 6.72028C42.5747 6.58183 42.092 6.45835 41.6206 6.3461L42.8965 0.927967C43.4615 1.06267 44.0378 1.21234 44.5991 1.37698L43.0462 6.72028ZM28.8723 6.18146L27.7385 0.729651C28.3147 0.609914 28.8947 0.505143 29.4709 0.41534L30.3241 5.91579C29.8414 5.99062 29.355 6.08043 28.8723 6.18146ZM36.7338 5.62393C36.2436 5.59399 35.7459 5.57528 35.2558 5.5678L35.3231 0C35.9068 0.0074836 36.4981 0.0299343 37.078 0.0673524L36.7338 5.62393Z" fill="black"/>
<path d="M61.0474 48.0667L62.6938 48.9011C62.9295 48.4334 63.154 47.9581 63.3673 47.4792L61.6797 46.7308C61.4814 47.1836 61.2681 47.6364 61.0474 48.0667Z" fill="black"/>
<path d="M61.946 46.121L63.6486 46.8282C63.8506 46.3455 64.0377 45.8553 64.2173 45.3614L62.4811 44.7402C62.3127 45.2042 62.1331 45.6682 61.946 46.121Z" fill="black"/>
<path d="M6.57748 42.5454L4.79639 43.0244C4.93483 43.5332 5.08076 44.0346 5.2454 44.5286L7.00031 43.9561C6.84689 43.4883 6.70471 43.0131 6.57748 42.5454Z" fill="black"/>
<path d="M7.9933 46.5739L6.302 47.3111C6.51154 47.7938 6.73231 48.2652 6.96804 48.733L8.62192 47.9098C8.40115 47.472 8.18787 47.023 7.9933 46.5739Z" fill="black"/>
<path d="M64.1715 34.2294C64.1827 34.7195 64.1827 35.2172 64.1677 35.7111L66.0162 35.7635C66.0311 35.2434 66.0311 34.7195 66.0199 34.1919C66.0199 34.1695 66.0162 34.1508 66.0162 34.1283L64.1677 34.1695L64.1715 34.2294Z" fill="black"/>
<path d="M64.1487 33.5103L65.9897 33.4242C65.9672 32.8966 65.9298 32.3765 65.8774 31.8564L64.0439 32.0322C64.0888 32.5187 64.1263 33.0163 64.1487 33.5103Z" fill="black"/>
<path d="M5.71095 31.9259L3.87747 31.7426C3.82509 32.2627 3.78767 32.7828 3.76147 33.3104L5.60244 33.4002C5.62489 32.91 5.66231 32.4124 5.71095 31.9259Z" fill="black"/>
<path d="M63.1574 27.1759L64.9385 26.6932C64.8001 26.1843 64.6504 25.6829 64.4895 25.189L62.7346 25.7615C62.888 26.2255 63.0302 26.7007 63.1574 27.1759Z" fill="black"/>
<path d="M62.5258 25.1336L64.2657 24.52C64.0899 24.0261 63.9065 23.5359 63.7082 23.0532L62.002 23.7529C62.1853 24.2057 62.3612 24.6696 62.5258 25.1336Z" fill="black"/>
<path d="M7.78999 23.6519L6.08747 22.9447C5.88542 23.4274 5.69833 23.9176 5.52246 24.4115L7.25866 25.0326C7.41955 24.5724 7.59916 24.1084 7.78999 23.6519Z" fill="black"/>
<path d="M8.68442 21.7071L7.03428 20.8765C6.79855 21.3442 6.57404 21.8194 6.3645 22.2983L8.05205 23.043C8.25037 22.594 8.46365 22.1449 8.68442 21.7071Z" fill="black"/>
<path d="M59.7486 19.3698L61.3126 18.3932C61.0358 17.9479 60.7476 17.5101 60.4483 17.0835L58.9329 18.1387C59.2135 18.5391 59.4904 18.9544 59.7486 19.3698Z" fill="black"/>
<path d="M57.227 15.9176L58.6339 14.724C58.2934 14.3236 57.9454 13.9345 57.59 13.5528L56.2429 14.8175C56.5797 15.173 56.909 15.5434 57.227 15.9176Z" fill="black"/>
<path d="M15.1273 13.2141L13.885 11.8521C13.4996 12.2038 13.1179 12.5667 12.7512 12.9409L14.0609 14.2393C14.4051 13.8913 14.7643 13.5471 15.1273 13.2141Z" fill="black"/>
<path d="M52.569 11.51L53.684 10.0432C53.2649 9.72515 52.8421 9.42207 52.4081 9.12646L51.3716 10.6494C51.7757 10.9225 52.1761 11.2144 52.569 11.51Z" fill="black"/>
<path d="M24.1379 7.59138L23.4606 5.87015C22.9742 6.06098 22.4915 6.26678 22.02 6.48006L22.7833 8.16387C23.2324 7.96181 23.6889 7.76724 24.1379 7.59138Z" fill="black"/>
<path d="M40.9712 6.2015L41.3529 4.39795C40.844 4.28944 40.3276 4.19589 39.8075 4.10983L39.5156 5.93209C39.9983 6.00693 40.4885 6.10047 40.9712 6.2015Z" fill="black"/>
<path d="M32.4532 5.66518L32.3035 3.82422C31.7796 3.86538 31.2595 3.92151 30.7432 3.9926L30.9864 5.82234C31.4653 5.75873 31.9592 5.70634 32.4532 5.66518Z" fill="black"/>
<path d="M62.6934 44.1114L66.1994 45.2788C66.3753 44.7512 66.5362 44.2199 66.6859 43.6811L63.1274 42.697C62.9927 43.1722 62.8505 43.6474 62.6934 44.1114Z" fill="black"/>
<path d="M63.2957 42.0587L66.8728 42.9605C67.0075 42.4254 67.131 41.8828 67.2395 41.3365L63.6212 40.6181C63.5239 41.0971 63.4154 41.5835 63.2957 42.0587Z" fill="black"/>
<path d="M6.09545 40.4575L2.47339 41.1572C2.57816 41.7035 2.6979 42.2461 2.82886 42.7812L6.4135 41.9019C6.29751 41.4266 6.189 40.944 6.09545 40.4575Z" fill="black"/>
<path d="M6.00166 29.8009L2.36089 29.1686C2.26735 29.7111 2.18503 30.2612 2.11768 30.815L5.78464 31.264C5.84077 30.7813 5.9156 30.2874 6.00166 29.8009Z" fill="black"/>
<path d="M63.6437 29.257L67.2658 28.5573C67.161 28.011 67.0413 27.4684 66.9066 26.9296L63.3257 27.8164C63.4417 28.2954 63.5502 28.7781 63.6437 29.257Z" fill="black"/>
<path d="M7.04223 25.6602L3.53616 24.5003C3.36404 25.0241 3.20314 25.5555 3.05347 26.0943L6.61192 27.0746C6.74288 26.6032 6.88881 26.128 7.04223 25.6602Z" fill="black"/>
<path d="M61.7391 23.1418L65.1217 21.6638C64.901 21.1549 64.6652 20.6535 64.4183 20.1596L61.1143 21.8097C61.335 22.2475 61.5446 22.6965 61.7391 23.1418Z" fill="black"/>
<path d="M10.8848 18.0314L7.86514 15.9061C7.54709 16.3589 7.24026 16.8228 6.94092 17.2943L10.0653 19.2625C10.3272 18.8434 10.6041 18.4281 10.8848 18.0314Z" fill="black"/>
<path d="M18.4854 10.5689L16.42 7.51187C15.9597 7.82244 15.5107 8.14424 15.0654 8.47726L17.2843 11.4258C17.6735 11.1339 18.0813 10.8421 18.4854 10.5689Z" fill="black"/>
<path d="M26.1576 6.88151L25.065 3.36047C24.5337 3.52511 24.0099 3.70472 23.4897 3.89555L24.762 7.36046C25.2222 7.18834 25.6899 7.02744 26.1576 6.88151Z" fill="black"/>
<path d="M28.2242 6.32245L27.3898 2.72284C26.8473 2.85006 26.3084 2.98851 25.7771 3.13818L26.7911 6.69289C27.2663 6.55444 27.749 6.43096 28.2242 6.32245Z" fill="black"/>
<path d="M55.7834 14.3334L58.4176 11.7478C58.0285 11.3512 57.6318 10.9658 57.2202 10.5916L54.7207 13.3044C55.0837 13.6412 55.4429 13.9892 55.7834 14.3334Z" fill="black"/>
<path d="M48.9767 9.17503L50.7541 5.94212C50.2676 5.67645 49.7737 5.41827 49.276 5.17505L47.6633 8.49403C48.1049 8.71105 48.5464 8.9393 48.9767 9.17503Z" fill="black"/>
<path d="M45.0843 7.39345L46.3678 3.93602C45.8477 3.74145 45.3201 3.56184 44.7887 3.39346L43.6812 6.9145C44.1489 7.05669 44.6203 7.22133 45.0843 7.39345Z" fill="black"/>
<path d="M34.5977 5.56565L34.5603 1.87624C34.4218 1.87624 34.2871 1.87249 34.1524 1.87624C33.7333 1.88372 33.3143 1.90991 32.8989 1.9361L33.1159 5.62178C33.6061 5.5881 34.1 5.56939 34.5977 5.56565Z" fill="black"/>
<path d="M38.8616 5.83284L39.3593 2.16962C38.813 2.09478 38.2592 2.03491 37.7054 1.98627L37.3911 5.6682C37.885 5.7131 38.3789 5.76549 38.8616 5.83284Z" fill="black"/>
<path d="M7.65183 54.2861C7.39364 54.2412 7.16165 54.1477 6.95959 54.0093C6.75754 53.8708 6.58541 53.6912 6.43948 53.4779C6.29729 53.2684 6.20001 53.0476 6.15136 52.8156C6.10272 52.5836 6.10646 52.3329 6.15511 52.0635C6.20749 51.7941 6.32723 51.5621 6.51806 51.375C6.70889 51.1879 7.0232 50.9447 7.461 50.6491C7.89504 50.3535 8.23555 50.1515 8.48625 50.0429C8.73321 49.9344 8.99513 49.9045 9.26454 49.9569C9.53769 50.0093 9.76594 50.0953 9.95678 50.2188C10.1476 50.3423 10.316 50.5144 10.4694 50.7389C10.765 51.173 10.8773 51.5958 10.8099 52.0111C10.7388 52.4265 10.5442 52.7857 10.2224 53.0925L9.69111 52.3142C10.0092 51.9625 10.0391 51.5921 9.78091 51.2104C9.63872 51.0008 9.47783 50.8886 9.29822 50.8624C9.11487 50.84 8.94649 50.8624 8.79308 50.9335C8.63592 51.0046 8.37025 51.1692 7.99233 51.4274C7.60318 51.6931 7.34874 51.8802 7.229 51.9962C7.10927 52.1122 7.02695 52.2544 6.98204 52.434C6.93714 52.6098 6.98579 52.8044 7.13172 53.0177C7.28887 53.2459 7.45351 53.3769 7.62938 53.3993C7.80524 53.4218 7.94743 53.4218 8.05968 53.3881C8.17194 53.3544 8.28045 53.3021 8.37774 53.2347L8.52741 53.1337L8.03349 52.4115L8.68456 51.9662L9.69859 53.4517L9.11861 53.8484C8.82675 54.0467 8.57231 54.1776 8.34406 54.2487C8.11581 54.3198 7.8913 54.3236 7.65183 54.2861Z" fill="black"/>
<path d="M10.5441 57.7266C10.2971 57.7117 10.0726 57.6593 9.86679 57.562C9.66473 57.4684 9.47016 57.3188 9.28681 57.113C9.10721 56.9109 8.97998 56.7051 8.90141 56.4881C8.82657 56.2711 8.79664 56.0241 8.8116 55.7472C8.82657 55.4666 8.91637 55.2234 9.08101 55.0138C9.24565 54.8043 9.52255 54.5199 9.91918 54.1682C10.3083 53.8164 10.6226 53.5695 10.8546 53.431C11.0866 53.2889 11.3411 53.2252 11.618 53.2402C11.8948 53.2552 12.1343 53.3113 12.3401 53.4086C12.5459 53.5059 12.7368 53.6555 12.9201 53.8613C13.096 54.0597 13.2232 54.2655 13.298 54.4787C13.3729 54.692 13.4028 54.939 13.3878 55.2159C13.3729 55.4928 13.2831 55.7397 13.1147 55.9605C12.9463 56.1813 12.6694 56.4619 12.2877 56.8061C11.8948 57.1616 11.5805 57.4048 11.3523 57.5433C11.124 57.6855 10.8546 57.7453 10.5441 57.7266ZM12.5085 55.0363C12.5384 54.8118 12.4673 54.606 12.299 54.4189C12.2129 54.3216 12.1194 54.2505 12.0183 54.2056C11.9173 54.1607 11.805 54.1382 11.6816 54.1382C11.5581 54.1382 11.4234 54.1831 11.2775 54.2729C11.1315 54.3627 10.8883 54.5611 10.5478 54.8679C10.1961 55.1822 9.97156 55.403 9.87053 55.5302C9.7695 55.6574 9.70964 55.8108 9.68718 55.9979C9.66473 56.1813 9.73957 56.3721 9.91169 56.5592C10.0801 56.7463 10.2559 56.8398 10.4355 56.8361C10.6152 56.8323 10.7873 56.7837 10.9407 56.6901C11.0978 56.5966 11.3373 56.402 11.6629 56.1102C12.0034 55.8033 12.2241 55.5826 12.3289 55.4479C12.4337 55.3132 12.4898 55.1785 12.5085 55.0363Z" fill="black"/>
<path d="M11.3337 59.2002L14.4806 55.5744L15.1878 56.188L12.5872 59.1852L14.2299 60.6108L13.6836 61.2432L11.3337 59.2002Z" fill="black"/>
<path d="M17.23 63.1238C17.0242 63.1649 16.8071 63.1575 16.5789 63.1013C16.3506 63.0452 16.1299 62.9442 15.9203 62.8057L14.4797 61.8478L17.1402 57.8516L18.5808 58.8095C18.794 58.9517 18.9699 59.1126 19.1083 59.2959C19.2468 59.4755 19.3403 59.6963 19.3927 59.9507C19.4451 60.2052 19.4264 60.4521 19.3366 60.6841C19.2468 60.9161 19.1009 61.193 18.8876 61.5111L18.7192 61.7655L18.5508 62.02C18.3338 62.3455 18.1317 62.5962 17.9446 62.7758C17.7613 62.9479 17.5218 63.0639 17.23 63.1238ZM18.4648 60.0892C18.4535 59.962 18.4124 59.846 18.3488 59.7449C18.2814 59.6402 18.1841 59.5466 18.0494 59.4568L17.462 59.0639L15.7258 61.672L16.3132 62.0649C16.5677 62.2332 16.7884 62.2894 16.9755 62.2332C17.1626 62.1771 17.316 62.0798 17.432 61.9451C17.5518 61.8104 17.7201 61.5784 17.9446 61.2417C18.1579 60.9199 18.3039 60.6804 18.375 60.527C18.446 60.3736 18.476 60.2276 18.4648 60.0892Z" fill="black"/>
<path d="M21.3365 65.7632C21.1007 65.6622 20.9024 65.5275 20.7378 65.3591C20.5731 65.1907 20.4384 64.9774 20.3374 64.7192C20.2364 64.461 20.2139 64.2029 20.2738 63.9447C20.3337 63.6865 20.4684 63.3123 20.6779 62.8259C20.8875 62.3432 21.0671 61.9877 21.2167 61.7632C21.3664 61.5387 21.5722 61.3741 21.8267 61.273C22.0848 61.172 22.3243 61.1234 22.5526 61.1234C22.7808 61.1234 23.0165 61.1795 23.2598 61.2842C23.6826 61.4676 23.9894 61.7407 24.1765 62.1037C24.3636 62.4667 24.3973 62.8895 24.2775 63.3722L23.4057 62.998C23.4431 62.7885 23.4244 62.6014 23.3496 62.4367C23.2747 62.2721 23.1363 62.1449 22.9305 62.0551C22.6948 61.954 22.4964 61.9391 22.3393 62.0176C22.1784 62.0925 22.0474 62.2085 21.9426 62.3656C21.8379 62.5228 21.6994 62.7997 21.5273 63.2001C21.3477 63.6154 21.2392 63.911 21.198 64.0794C21.1569 64.2478 21.1681 64.4199 21.2242 64.592C21.2803 64.7641 21.4263 64.9026 21.6583 65.0036C21.8641 65.0934 22.0512 65.1046 22.2233 65.0448C22.3954 64.9849 22.5413 64.8689 22.6686 64.6968L23.5404 65.071C23.2747 65.4826 22.9417 65.7482 22.5451 65.8642C22.1672 65.9802 21.7593 65.9465 21.3365 65.7632Z" fill="black"/>
<path d="M23.9414 66.7549L25.266 62.1413L28.3006 63.0131L28.0686 63.8176L25.932 63.2039L25.6215 64.2853L27.44 64.8092L27.208 65.6137L25.3895 65.0898L25.0639 66.2161L27.2005 66.8297L26.9685 67.6342L23.9414 66.7549Z" fill="black"/>
<path d="M30.6156 68.2471L29.9757 66.2116L29.3097 66.1106L29.0253 68.0077L28.1011 67.8692L28.812 63.1209L30.6717 63.3978C31.1432 63.4689 31.4949 63.6634 31.7306 63.9815C31.9664 64.2995 32.0524 64.6662 31.9925 65.0778C31.9476 65.3884 31.8242 65.6391 31.6296 65.8299C31.435 66.0208 31.203 66.1405 30.9411 66.1929L31.6932 68.4043L30.6156 68.2471ZM30.4846 64.2135L29.6128 64.0825L29.4257 65.3285L30.2975 65.4595C30.4958 65.4894 30.6679 65.4558 30.8101 65.3585C30.9523 65.2612 31.0346 65.1227 31.0646 64.9357C31.0945 64.7448 31.0534 64.5839 30.9486 64.453C30.8438 64.3257 30.6904 64.2434 30.4846 64.2135Z" fill="black"/>
<path d="M34.6518 64.5283L34.5658 68.4946L33.6303 68.4759L33.7164 64.5096L32.4629 64.4834L32.4816 63.649L35.9241 63.7238L35.9053 64.5582L34.6518 64.5283Z" fill="black"/>
<path d="M36.7224 68.4468L36.4006 63.6573L37.3361 63.5937L37.6579 68.3869L36.7224 68.4468Z" fill="black"/>
<path d="M39.1655 64.2266L39.3489 65.3903L41.2198 65.0947L41.3508 65.9179L39.4798 66.2135L39.7867 68.1443L38.8625 68.2902L38.1104 63.5494L41.231 63.0555L41.362 63.8786L39.1655 64.2266Z" fill="black"/>
<path d="M42.9042 67.5444L41.718 62.8896L42.6235 62.6577L43.8097 67.3125L42.9042 67.5444Z" fill="black"/>
<path d="M44.9814 67.0055L43.3687 62.4817L46.3434 61.419L46.624 62.2048L44.5324 62.9494L44.9103 64.0084L46.6914 63.3723L46.972 64.158L45.1909 64.7941L45.5838 65.898L47.6755 65.1496L47.9561 65.9354L44.9814 67.0055Z" fill="black"/>
<path d="M51.4727 63.7105C51.4091 63.9088 51.2968 64.0959 51.1322 64.268C50.9713 64.4401 50.7767 64.5823 50.5522 64.6983L49.0106 65.4878L46.8179 61.2147L48.3595 60.4252C48.5877 60.3092 48.8122 60.2343 49.0405 60.2007C49.265 60.167 49.5045 60.1932 49.7514 60.2718C49.9984 60.3503 50.2042 60.4888 50.3651 60.6759C50.526 60.863 50.6944 61.1324 50.8665 61.4729L51.0049 61.7423L51.1434 62.0117C51.323 62.3597 51.4427 62.659 51.5101 62.9097C51.5774 63.1604 51.5625 63.4261 51.4727 63.7105ZM49.4259 61.1511C49.3099 61.0987 49.1902 61.0762 49.0667 61.0837C48.9432 61.0912 48.8122 61.1324 48.6663 61.2035L48.0377 61.5253L49.4671 64.3129L50.0957 63.9911C50.3688 63.8527 50.5223 63.688 50.5634 63.4972C50.6046 63.3064 50.5933 63.1267 50.5372 62.9584C50.4773 62.79 50.3576 62.5243 50.1743 62.1688C49.9984 61.8246 49.86 61.5814 49.7589 61.4429C49.6616 61.3082 49.5494 61.2072 49.4259 61.1511Z" fill="black"/>
<path d="M54.3316 62.469L53.8527 61.8329L54.0323 59.0939C54.0398 58.9554 54.0323 58.8394 54.0098 58.7459C53.9874 58.6561 53.9462 58.5663 53.8826 58.4802C53.7741 58.338 53.6469 58.252 53.501 58.2258C53.355 58.1996 53.2054 58.2408 53.0594 58.353C52.9247 58.454 52.8387 58.5775 52.8087 58.7197C52.7788 58.8619 52.8274 59.0191 52.9621 59.1949L52.2624 59.7225C52.0042 59.3783 51.907 59.0228 51.9743 58.6561C52.0417 58.2894 52.2475 57.9788 52.588 57.7244C52.9322 57.4662 53.2877 57.354 53.6544 57.3951C54.0211 57.4325 54.3316 57.6234 54.5898 57.9639C54.7208 58.1397 54.8031 58.3081 54.8293 58.4653C54.8555 58.6224 54.8592 58.8507 54.8405 59.1463L54.7058 61.2043L56.1876 60.0892L56.6628 60.7178L54.3316 62.469Z" fill="black"/>
<path d="M58.4586 59.1229C58.163 59.4036 57.8225 59.5495 57.4409 59.557C57.0592 59.5645 56.7187 59.4111 56.4156 59.0893L55.0274 57.6225C54.7243 57.3044 54.5896 56.9527 54.6196 56.571C54.6495 56.1894 54.8104 55.8601 55.1097 55.5795C55.4053 55.2988 55.7458 55.1529 56.1238 55.1492C56.5017 55.1417 56.8459 55.2988 57.149 55.6169L58.5372 57.0837C58.8441 57.4055 58.9825 57.7572 58.9526 58.1314C58.9226 58.5055 58.758 58.8386 58.4586 59.1229ZM56.5167 56.2305C56.3819 56.0883 56.2323 56.0098 56.0751 55.9948C55.918 55.9798 55.7758 56.036 55.6486 56.1557C55.5213 56.2754 55.4577 56.4139 55.4615 56.5748C55.4652 56.7319 55.5326 56.8853 55.6747 57.035L57.0517 58.4868C57.1864 58.629 57.3361 58.7076 57.4933 58.7188C57.6504 58.7301 57.7926 58.6739 57.9198 58.5542C58.0471 58.4345 58.1107 58.296 58.1069 58.1389C58.1032 57.9817 58.0358 57.832 57.8936 57.6861L56.5167 56.2305Z" fill="black"/>
<path d="M60.1565 57.3925L59.5503 56.8799L59.1163 54.1671C59.0901 54.0286 59.0602 53.9164 59.019 53.834C58.9778 53.7517 58.918 53.6731 58.8356 53.602C58.6972 53.486 58.555 53.4299 58.4053 53.4374C58.2557 53.4449 58.121 53.516 58.005 53.6582C57.8965 53.7891 57.8403 53.9276 57.8403 54.0698C57.8403 54.2119 57.9264 54.3579 58.0948 54.5001L57.5298 55.1699C57.2005 54.893 57.0284 54.5674 57.0134 54.197C56.9984 53.8265 57.1256 53.4786 57.4025 53.1493C57.6794 52.82 58.0012 52.6329 58.3679 52.588C58.7346 52.5431 59.0789 52.6591 59.4044 52.936C59.5728 53.0782 59.6888 53.2241 59.7486 53.3738C59.8123 53.5235 59.8646 53.7442 59.9133 54.0361L60.2388 56.0716L61.4362 54.6535L62.0386 55.1624L60.1565 57.3925Z" fill="black"/>
<path d="M63.442 53.21C63.2025 53.5692 62.9031 53.8049 62.5439 53.9209C62.1847 54.0369 61.8105 53.9621 61.4176 53.7001L61.9041 52.9705C62.0725 53.0827 62.2371 53.1164 62.3943 53.0715C62.5514 53.0266 62.6824 52.9293 62.7871 52.7759C62.8957 52.615 62.9331 52.4541 62.9031 52.2895C62.8732 52.1286 62.7684 51.9864 62.5888 51.8666C62.4205 51.7544 62.2521 51.717 62.0874 51.7469C61.9228 51.7806 61.7806 51.8854 61.6646 52.0612L61.5935 52.166L60.9611 51.7432L61.0322 51.6384C61.1445 51.47 61.1819 51.3129 61.1482 51.1669C61.1146 51.021 61.021 50.9013 60.8713 50.8002C60.7105 50.6917 60.5533 50.658 60.4036 50.6917C60.2502 50.7254 60.1305 50.8115 60.0369 50.9499C59.9434 51.0921 59.906 51.238 59.9322 51.3877C59.9546 51.5374 60.0407 51.6646 60.1903 51.7619L59.7039 52.4915C59.3597 52.2633 59.1613 51.9639 59.109 51.5898C59.0566 51.2193 59.1464 50.8601 59.3784 50.5121C59.6141 50.1566 59.9134 49.9359 60.2801 49.8498C60.6431 49.7638 60.9948 49.8311 61.3316 50.0556C61.5374 50.1941 61.6796 50.3475 61.7582 50.5159C61.8367 50.688 61.8667 50.8676 61.8442 51.0584C62.0388 50.9537 62.2371 50.905 62.4429 50.9125C62.6487 50.92 62.8657 50.9986 63.094 51.1482C63.4719 51.3989 63.6852 51.7132 63.7301 52.0949C63.7787 52.4803 63.6814 52.8507 63.442 53.21Z" fill="black"/>
</mask>
<g mask="url(#mask0_616_258)">
<rect width="82" height="77" fill="white"/>
</g>
</svg>
