<svg width="26" height="26" viewBox="0 0 26 26" fill="none" xmlns="http://www.w3.org/2000/svg">
<path d="M24.538 22.9421L17.002 15.4062C18.1714 13.8944 18.804 12.0459 18.804 10.1017C18.804 7.77449 17.8958 5.59234 16.2534 3.94703C14.6109 2.30172 12.423 1.39636 10.0987 1.39636C7.77434 1.39636 5.58639 2.30462 3.94398 3.94703C2.29867 5.58944 1.39331 7.77449 1.39331 10.1017C1.39331 12.4261 2.30157 14.614 3.94398 16.2564C5.58639 17.9017 7.77144 18.8071 10.0987 18.8071C12.0429 18.8071 13.8884 18.1745 15.4002 17.008L22.9362 24.541C22.9583 24.5631 22.9845 24.5807 23.0134 24.5926C23.0423 24.6046 23.0732 24.6108 23.1045 24.6108C23.1357 24.6108 23.1667 24.6046 23.1956 24.5926C23.2244 24.5807 23.2507 24.5631 23.2728 24.541L24.538 23.2787C24.5601 23.2566 24.5776 23.2304 24.5896 23.2015C24.6015 23.1726 24.6077 23.1417 24.6077 23.1104C24.6077 23.0792 24.6015 23.0482 24.5896 23.0193C24.5776 22.9905 24.5601 22.9642 24.538 22.9421ZM14.6951 14.6981C13.4647 15.9256 11.8339 16.6017 10.0987 16.6017C8.3634 16.6017 6.7326 15.9256 5.50224 14.6981C4.27478 13.4678 3.59867 11.837 3.59867 10.1017C3.59867 8.36645 4.27478 6.73275 5.50224 5.50529C6.7326 4.27784 8.3634 3.60172 10.0987 3.60172C11.8339 3.60172 13.4676 4.27493 14.6951 5.50529C15.9226 6.73565 16.5987 8.36645 16.5987 10.1017C16.5987 11.837 15.9226 13.4707 14.6951 14.6981Z" fill="#FF3B21"/>
</svg>
