<svg width="29" height="29" viewBox="0 0 29 29" fill="none" xmlns="http://www.w3.org/2000/svg">
<path d="M27.4816 6.0542C26.5083 6.47406 25.4491 6.77624 24.3581 6.89393C25.4908 6.22099 26.339 5.15785 26.7437 3.90397C25.6807 4.53628 24.5163 4.97967 23.302 5.21447C22.7945 4.6719 22.1807 4.23968 21.4988 3.94471C20.817 3.64975 20.0817 3.49837 19.3388 3.50001C16.3329 3.50001 13.9155 5.93651 13.9155 8.92646C13.9155 9.34633 13.9664 9.76619 14.0491 10.1702C9.54825 9.93478 5.53408 7.78455 2.86539 4.49242C2.37912 5.32298 2.1243 6.26867 2.12744 7.23109C2.12744 9.11413 3.08486 10.7745 4.54485 11.751C3.68446 11.7171 2.84421 11.4806 2.09245 11.0608V11.1276C2.09245 13.7645 3.9564 15.9497 6.44061 16.4522C5.97417 16.5734 5.49434 16.6354 5.01243 16.6367C4.65936 16.6367 4.32537 16.6017 3.98821 16.554C4.67526 18.7042 6.67599 20.266 9.05841 20.3169C7.19446 21.7769 4.85975 22.6357 2.32465 22.6357C1.8698 22.6357 1.44993 22.6198 1.01416 22.5689C3.41885 24.1116 6.27203 25.0022 9.34468 25.0022C19.3197 25.0022 24.7779 16.7385 24.7779 9.5658C24.7779 9.33042 24.7779 9.09504 24.762 8.85966C25.8181 8.08673 26.7437 7.12931 27.4816 6.0542Z" fill="black" fill-opacity="0.85"/>
</svg>
